<svg width="131" height="82" viewBox="0 0 131 82" fill="none" xmlns="http://www.w3.org/2000/svg">
<g clip-path="url(#clip0_5_2)">
<g clip-path="url(#clip1_5_2)">
<g clip-path="url(#clip2_5_2)">
<g clip-path="url(#clip3_5_2)">
<g clip-path="url(#clip4_5_2)">
<g clip-path="url(#clip5_5_2)">
<g clip-path="url(#clip6_5_2)">
<g clip-path="url(#clip7_5_2)">
<path d="M42.8703 61.6598C43.2832 61.5667 43.6273 61.5202 43.9025 61.5202C44.343 61.5202 44.6733 61.6133 44.8935 61.7994C45.1137 61.9856 45.2238 62.2261 45.2238 62.5209C45.2238 62.9864 45.0256 63.382 44.6292 63.7078C44.2273 64.0337 43.5447 64.3285 42.5812 64.5922C40.9571 65.0267 38.8513 65.3711 36.2638 65.6256C33.6763 65.8831 31.13 66.0119 28.6251 66.0119C25.1567 66.0119 22.2526 65.79 19.9128 65.3463C17.573 64.9056 15.8333 64.2974 14.6937 63.5217C13.5486 62.7459 12.976 61.8693 12.976 60.8918C12.976 59.5575 13.7413 58.4217 15.2718 57.4846C16.7968 56.5444 19.0457 55.8648 22.0186 55.4459C20.3945 55.1821 19.1503 54.7166 18.286 54.0495C17.4161 53.3823 16.9812 52.6376 16.9812 51.8153C16.9812 50.6981 17.6088 49.7083 18.864 48.8456C20.1138 47.986 21.7984 47.3235 23.918 46.8581C26.0376 46.3926 28.3636 46.1599 30.8961 46.1599C34.3094 46.1599 36.8694 46.5741 38.5761 47.4027C40.2827 48.2343 41.1361 49.3095 41.1361 50.6283C41.1361 51.5437 40.8415 52.2838 40.2525 52.8486C39.6579 53.4164 38.81 53.7004 37.709 53.7004C36.9382 53.7004 36.3326 53.6026 35.8922 53.4071C35.4518 53.2147 35.2315 52.9246 35.2315 52.5367C35.2315 52.273 35.3004 51.9859 35.438 51.6756C35.5756 51.1636 35.6445 50.8145 35.6445 50.6283C35.6445 50.0698 35.2728 49.6152 34.5296 49.2645C33.7864 48.917 32.5477 48.7432 30.8135 48.7432C28.4737 48.7432 26.6019 49.0225 25.198 49.581C23.7941 50.1396 23.0922 50.8921 23.0922 51.8385C23.0922 52.5678 23.6235 53.1682 24.686 53.6399C25.743 54.1146 27.469 54.3753 29.8638 54.4218C30.4694 54.4374 30.8961 54.5149 31.1438 54.6546C31.3915 54.7942 31.5154 55.027 31.5154 55.3528C31.5154 56.3768 30.6896 56.8966 29.038 56.9121C26.7533 56.9431 24.8622 57.1215 23.3647 57.4474C21.8617 57.7732 20.7744 58.1874 20.1028 58.6902C19.4256 59.196 19.087 59.7359 19.087 60.31C19.087 61.2719 19.8853 61.9965 21.4819 62.4837C23.0784 62.974 25.6109 63.2191 29.0793 63.2191C31.364 63.2191 33.7809 63.0671 36.3299 62.763C38.8734 62.462 41.0535 62.0942 42.8703 61.6598ZM58.7258 66.0119C55.4501 66.0119 52.601 65.6737 50.1787 64.9972C47.7563 64.3238 45.8982 63.3665 44.6045 62.1253C43.3107 60.884 42.6638 59.4411 42.6638 57.7965C42.6638 55.5157 43.4263 53.4909 44.9513 51.7222C46.4818 49.9534 48.5546 48.5834 51.1696 47.6121C53.7847 46.644 56.6888 46.1599 59.8819 46.1599C62.8548 46.1599 65.112 46.5896 66.6535 47.4492C68.195 48.3119 68.9658 49.4491 68.9658 50.8611C68.9658 51.8075 68.6685 52.5678 68.0739 53.1418C67.4848 53.7159 66.6397 54.0029 65.5387 54.0029C64.7679 54.0029 64.1623 53.9021 63.7219 53.7004C63.2815 53.4987 63.0613 53.2039 63.0613 52.816C63.0613 52.6764 63.1163 52.4204 63.2264 52.048C63.3916 51.5825 63.4742 51.2101 63.4742 50.9309C63.4742 49.519 62.1391 48.813 59.469 48.813C57.6522 48.813 55.918 49.1466 54.2664 49.8138C52.6148 50.4809 51.2797 51.4615 50.2612 52.7555C49.2427 54.0526 48.7335 55.5933 48.7335 57.3775C48.7335 59.2394 49.6556 60.6777 51.5 61.6924C53.3443 62.7102 56.0694 63.2191 59.6754 63.2191C61.4647 63.2191 63.2732 63.0903 65.101 62.8328C66.9343 62.5783 68.9658 62.1873 71.1955 61.6598C71.6084 61.5667 71.9524 61.5202 72.2277 61.5202C72.6681 61.5202 72.9985 61.6133 73.2187 61.7994C73.4389 61.9856 73.549 62.2261 73.549 62.5209C73.549 63.4674 72.6406 64.1656 70.8238 64.6155C68.8694 65.0965 66.8379 65.4487 64.7294 65.6721C62.6263 65.8986 60.6251 66.0119 58.7258 66.0119ZM84.0368 66.0119C81.5869 66.0119 79.3764 65.7016 77.4055 65.081C75.4401 64.4603 73.8793 63.548 72.7232 62.344C71.5671 61.1431 70.989 59.7049 70.989 58.0292C70.989 55.6708 71.7515 53.5918 73.2765 51.792C74.807 49.9922 76.8853 48.6036 79.5113 47.6261C82.1429 46.6486 85.0552 46.1599 88.2484 46.1599C90.6983 46.1599 92.9059 46.4702 94.8713 47.0908C96.8423 47.7114 98.4058 48.6237 99.5619 49.8277C100.718 51.0286 101.296 52.4669 101.296 54.1426C101.296 56.5009 100.531 58.58 99.0004 60.3798C97.4754 62.1796 95.3971 63.5682 92.7655 64.5457C90.1395 65.5232 87.2299 66.0119 84.0368 66.0119ZM84.4497 63.2657C86.5968 63.2657 88.4879 62.8933 90.123 62.1485C91.7636 61.4038 93.0243 60.3674 93.9052 59.0392C94.786 57.7142 95.2264 56.2139 95.2264 54.5382C95.2264 52.6919 94.5383 51.2908 93.1619 50.3351C91.7856 49.3824 90.0101 48.9061 87.8355 48.9061C85.7159 48.9061 83.8441 49.2738 82.22 50.0093C80.5959 50.7478 79.3297 51.7796 78.4213 53.1046C77.5129 54.4327 77.0587 55.9424 77.0587 57.6335C77.0587 59.4799 77.7469 60.8809 79.1232 61.8367C80.4995 62.7893 82.275 63.2657 84.4497 63.2657ZM126.64 60.7056C126.998 60.7056 127.282 60.7987 127.491 60.9849C127.694 61.1711 127.796 61.4271 127.796 61.7529C127.796 62.3735 127.535 62.8545 127.012 63.1958C125.883 63.9716 124.644 64.6341 123.296 65.1834C121.947 65.7357 120.612 66.0119 119.29 66.0119C117.198 66.0119 115.602 65.3215 114.501 63.9406C113.345 64.7629 112.334 65.3137 111.47 65.593C110.6 65.8723 109.587 66.0119 108.431 66.0119C106.752 66.0119 105.37 65.6597 104.286 64.9553C103.195 64.2478 102.65 63.3277 102.65 62.1951C102.65 60.9539 103.118 59.8011 104.054 58.7367C104.99 57.6754 106.278 56.8066 107.919 56.1301C109.554 55.4567 111.39 55.058 113.427 54.9339C113.95 51.9239 114.949 49.3514 116.425 47.2165C117.895 45.0846 119.827 44.0187 122.222 44.0187C123.406 44.0187 124.391 44.3213 125.178 44.9264C125.96 45.5315 126.351 46.4469 126.351 47.6726C126.351 49.4104 125.594 51.4429 124.08 53.7702C122.566 56.0975 120.543 58.4869 118.01 60.9383C118.121 61.8382 118.363 62.4821 118.737 62.87C119.106 63.2579 119.579 63.4518 120.158 63.4518C120.901 63.4518 121.658 63.2657 122.429 62.8933C123.199 62.5209 124.232 61.9003 125.525 61.0314C125.856 60.8142 126.227 60.7056 126.64 60.7056ZM121.768 46.2995C121.245 46.2995 120.722 46.8224 120.199 47.8681C119.676 48.917 119.23 50.287 118.861 51.9782C118.487 53.6693 118.217 55.4381 118.052 57.2844C121.135 53.4987 122.676 50.4577 122.676 48.1614C122.676 47.5718 122.588 47.1141 122.412 46.7882C122.23 46.4624 122.016 46.2995 121.768 46.2995ZM109.876 63.6613C110.399 63.6613 110.922 63.5403 111.445 63.2982C111.968 63.0593 112.629 62.614 113.427 61.9624C113.152 61.1245 113.014 60.1858 113.014 59.1463C113.014 58.7739 113.042 58.1688 113.097 57.331C111.583 57.5948 110.325 58.1642 109.323 59.0392C108.315 59.9174 107.812 60.8918 107.812 61.9624C107.812 63.095 108.5 63.6613 109.876 63.6613ZM142.867 60.7056C143.225 60.7056 143.509 60.7987 143.718 60.9849C143.922 61.1711 144.023 61.4271 144.023 61.7529C144.023 62.3735 143.762 62.8545 143.239 63.1958C142.22 63.894 140.783 64.5379 138.928 65.1275C137.067 65.7171 135.077 66.0119 132.958 66.0119C130.067 66.0119 127.824 65.5697 126.227 64.6853C124.631 63.8009 123.832 62.5907 123.832 61.0547C123.832 59.9841 124.232 58.988 125.03 58.0664C125.828 57.1417 126.937 56.4078 128.358 55.8648C129.773 55.3217 131.375 55.0502 133.164 55.0502C134.761 55.0502 136.041 55.3171 137.004 55.8508C137.967 56.3877 138.449 57.1138 138.449 58.0292C138.449 59.0998 137.769 60.0183 136.409 60.7847C135.044 61.5543 132.737 62.1641 129.489 62.614C130.177 63.3277 131.485 63.6846 133.412 63.6846C134.65 63.6846 136.063 63.4394 137.648 62.9491C139.228 62.462 140.596 61.8227 141.752 61.0314C142.083 60.8142 142.454 60.7056 142.867 60.7056ZM132.462 57.331C131.444 57.331 130.585 57.6646 129.886 58.3317C129.181 58.9989 128.829 59.8057 128.829 60.7522V60.7987C130.453 60.5815 131.733 60.2557 132.669 59.8212C133.604 59.3868 134.072 58.8825 134.072 58.3085C134.072 58.0137 133.929 57.7778 133.643 57.601C133.351 57.421 132.958 57.331 132.462 57.331Z" fill="#569161"/>
</g>
</g>
<g clip-path="url(#clip8_5_2)">
<g clip-path="url(#clip9_5_2)">
<path d="M16.4412 81.3835C15.6291 81.3835 15.0289 81.3288 14.6405 81.2193C14.2521 81.1099 13.9661 80.8979 13.7825 80.5835C13.5954 80.271 13.4312 79.7715 13.29 79.0849C13.0781 78.0799 12.9722 77.2988 12.9722 76.7415C12.9722 76.4032 13.0075 76.0151 13.0781 75.5773L13.237 74.6369C13.3253 73.8906 13.4277 73.3254 13.5442 72.9413C13.6572 72.5592 13.9132 72.2209 14.3121 71.9264C14.7076 71.6338 15.3202 71.4627 16.1499 71.4129C16.2382 71.403 16.3794 71.398 16.5736 71.398C17.1209 71.398 17.3946 71.4676 17.3946 71.607C17.3946 71.6667 17.3381 71.7184 17.2251 71.7622C17.1086 71.808 16.9885 71.8308 16.8649 71.8308L16.6001 71.8159L16.3618 71.801C16.0617 71.801 15.7933 71.8557 15.5568 71.9652C15.3167 72.0746 15.1172 72.2338 14.9583 72.4428C14.5876 72.9403 14.3492 73.4279 14.2433 73.9056C14.1021 74.5325 14.0138 75.0797 13.9785 75.5474L13.952 76.6967C13.952 77.1843 13.9785 77.5475 14.0314 77.7863C14.155 77.8958 14.2398 78.062 14.2857 78.2849C14.328 78.5098 14.3669 78.8162 14.4022 79.2043C14.4375 79.5526 14.5169 79.8481 14.6405 80.0909C14.7641 80.3357 14.9848 80.5377 15.3025 80.6969C15.6556 80.8661 16.1411 80.9507 16.759 80.9507C17.271 80.9507 17.6329 80.7915 17.8447 80.473C18.0919 80.1347 18.2331 79.7864 18.2684 79.4282C18.3214 78.9804 18.3479 78.6023 18.3479 78.2938V77.4729C18.1713 77.3734 17.8624 77.3236 17.421 77.3236H17.2092C17.1209 77.3336 17.0238 77.3386 16.9179 77.3386C16.4942 77.3386 16.2824 77.2789 16.2824 77.1594C16.2824 76.9903 16.4942 76.9057 16.9179 76.9057C17.218 76.9057 17.4652 76.9107 17.6594 76.9206L18.242 76.9356C18.5774 76.9654 18.8422 77.0002 19.0364 77.04C19.2482 77.0798 19.3542 77.1346 19.3542 77.2042C19.3542 77.3336 19.3012 77.5177 19.1953 77.7565C19.107 78.0351 19.0629 78.2242 19.0629 78.3237C19.0629 78.7416 19.0805 79.1197 19.1158 79.4581C19.1335 79.8063 19.1423 80.1894 19.1423 80.6074C18.242 81.1248 17.3416 81.3835 16.4412 81.3835ZM26.716 81.5328L26.3452 81.4582C26.1334 81.3288 25.9039 80.9855 25.6567 80.4283C25.4095 79.871 25.18 79.2441 24.9682 78.5476C24.827 77.9804 24.6239 77.4182 24.3591 76.8609C24.1473 76.3634 23.9443 76.1146 23.7501 76.1146H23.6706C23.2822 76.1146 23.088 76.1843 23.088 76.3236C23.088 77.04 23.1586 78.1296 23.2999 79.5924C23.3705 80.488 23.4499 81.0104 23.5382 81.1596L23.3264 81.4134H22.9556L22.7438 81.294C22.4613 76.6967 22.3201 73.5623 22.3201 71.8905C22.3201 71.7811 22.3342 71.6915 22.3624 71.6219C22.3872 71.5522 22.4436 71.4875 22.5319 71.4278C22.6025 71.3582 22.7261 71.3234 22.9027 71.3234C23.803 71.3234 24.5268 71.4477 25.0741 71.6965C25.6214 71.9453 25.895 72.3035 25.895 72.7712V73.8608C25.895 74.0499 25.7856 74.3036 25.5667 74.622C25.3442 74.9404 25.1006 75.234 24.8358 75.5027L24.4915 75.8758C24.6857 76.3833 25.0706 77.2958 25.6461 78.6132C26.2181 79.9327 26.5306 80.6322 26.5835 80.7118C26.6012 80.7218 26.6224 80.7467 26.6471 80.7865C26.6754 80.8263 26.7336 80.886 26.8219 80.9656C26.9455 81.1049 27.0072 81.2243 27.0072 81.3238C27.0072 81.4631 26.9101 81.5328 26.716 81.5328ZM23.2204 75.7415C23.5559 75.7415 23.856 75.6469 24.1208 75.4579C24.3856 75.2688 24.5975 75.025 24.7563 74.7265C25.0388 74.1195 25.18 73.6369 25.18 73.2787C25.18 73.0498 25.1589 72.8607 25.1165 72.7115C25.0706 72.5622 24.9947 72.403 24.8888 72.2338C24.6769 71.8856 24.1738 71.7114 23.3793 71.7114C23.291 71.7114 23.2204 71.7532 23.1675 71.8368C23.1145 71.9224 23.088 72.01 23.088 72.0995C23.088 72.7662 23.1057 73.3682 23.141 73.9056C23.1586 74.4429 23.1675 75.0449 23.1675 75.7116L23.2204 75.7415ZM30.4763 81.4731C30.1585 81.4731 29.982 81.3686 29.9467 81.1596V80.9656C29.9643 80.9158 29.9731 80.8561 29.9731 80.7865L29.8672 80.7268C30.0085 80.5178 30.0791 80.3138 30.0791 80.1148C30.0791 79.8859 30.0526 79.5576 29.9996 79.1297L29.9467 78.1446C29.9467 77.647 29.9731 76.9007 30.0261 75.9057C30.0967 75.02 30.132 74.2688 30.132 73.6518L30.0791 72.7563C30.0438 72.4876 30.0261 72.1891 30.0261 71.8607C30.0261 71.7114 30.0879 71.604 30.2115 71.5383C30.3351 71.4746 30.5293 71.4428 30.7941 71.4428C30.9706 71.4428 31.1118 71.4726 31.2178 71.5323C31.2531 71.5423 31.5091 71.5622 31.9857 71.592C32.4271 71.6219 32.8066 71.6667 33.1244 71.7264C33.4598 71.7861 33.6276 71.8607 33.6276 71.9503C33.6276 72.0498 33.4598 72.1493 33.1244 72.2488C32.1181 72.0597 31.4031 71.9652 30.9794 71.9652L30.847 72.0547C30.8647 72.1443 30.8735 72.3582 30.8735 72.6966C30.8735 73.1244 30.8559 73.5075 30.8205 73.8459C30.8029 74.1941 30.7941 74.5822 30.7941 75.0101C30.7941 75.2887 30.9176 75.428 31.1648 75.428L31.5885 75.4131C31.7297 75.4031 31.8798 75.3982 32.0387 75.3982C32.7272 75.3982 33.0714 75.4877 33.0714 75.6668C33.0714 75.7763 33.0273 75.8678 32.939 75.9415C32.8508 76.0171 32.7184 76.0549 32.5418 76.0549C32.277 76.0549 32.074 76.0151 31.9328 75.9355L31.0854 75.8609H30.953L30.8205 75.9355V75.9803C30.8559 76.1495 30.8735 76.5425 30.8735 77.1594C30.8735 77.5475 30.8647 77.9008 30.847 78.2192L30.8205 79.2789C30.8205 79.667 30.847 80.0651 30.9 80.473C30.9176 80.7019 31.0059 80.8531 31.1648 80.9268C31.3237 81.0024 31.615 81.0402 32.0387 81.0402L32.5153 81.0253C32.6742 81.0153 32.8508 81.0104 33.045 81.0104C33.5569 81.0104 33.8129 81.0751 33.8129 81.2044C33.8129 81.3835 33.4245 81.4731 32.6477 81.4731H30.4763ZM37.2555 81.4731C36.9377 81.4731 36.7612 81.3686 36.7259 81.1596V80.9656C36.7435 80.9158 36.7523 80.8561 36.7523 80.7865L36.6464 80.7268C36.7876 80.5178 36.8583 80.3138 36.8583 80.1148C36.8583 79.8859 36.8318 79.5576 36.7788 79.1297L36.7259 78.1446C36.7259 77.647 36.7523 76.9007 36.8053 75.9057C36.8759 75.02 36.9112 74.2688 36.9112 73.6518L36.8583 72.7563C36.823 72.4876 36.8053 72.1891 36.8053 71.8607C36.8053 71.7114 36.8671 71.604 36.9907 71.5383C37.1142 71.4746 37.3084 71.4428 37.5733 71.4428C37.7498 71.4428 37.891 71.4726 37.997 71.5323C38.0323 71.5423 38.2883 71.5622 38.7649 71.592C39.2063 71.6219 39.5858 71.6667 39.9036 71.7264C40.239 71.7861 40.4067 71.8607 40.4067 71.9503C40.4067 72.0498 40.239 72.1493 39.9036 72.2488C38.8973 72.0597 38.1823 71.9652 37.7586 71.9652L37.6262 72.0547C37.6439 72.1443 37.6527 72.3582 37.6527 72.6966C37.6527 73.1244 37.635 73.5075 37.5997 73.8459C37.5821 74.1941 37.5733 74.5822 37.5733 75.0101C37.5733 75.2887 37.6968 75.428 37.944 75.428L38.3677 75.4131C38.5089 75.4031 38.659 75.3982 38.8179 75.3982C39.5064 75.3982 39.8506 75.4877 39.8506 75.6668C39.8506 75.7763 39.8065 75.8678 39.7182 75.9415C39.63 76.0171 39.4976 76.0549 39.321 76.0549C39.0562 76.0549 38.8532 76.0151 38.7119 75.9355L37.8646 75.8609H37.7321L37.5997 75.9355V75.9803C37.635 76.1495 37.6527 76.5425 37.6527 77.1594C37.6527 77.5475 37.6439 77.9008 37.6262 78.2192L37.5997 79.2789C37.5997 79.667 37.6262 80.0651 37.6792 80.473C37.6968 80.7019 37.7851 80.8531 37.944 80.9268C38.1029 81.0024 38.3942 81.0402 38.8179 81.0402L39.2945 81.0253C39.4534 81.0153 39.63 81.0104 39.8242 81.0104C40.3361 81.0104 40.5921 81.0751 40.5921 81.2044C40.5921 81.3835 40.2037 81.4731 39.4269 81.4731H37.2555ZM50.2842 81.3387C50.143 81.3387 50.0424 81.3089 49.9824 81.2492C49.9188 81.1895 49.8605 81.0999 49.8076 80.9805C49.7899 80.9009 49.7546 80.8313 49.7017 80.7716L49.7281 80.7268C49.5869 80.2591 49.2868 79.6869 48.8278 79.0103L48.3511 78.2341C48.3158 78.2142 48.1481 77.9605 47.848 77.4729L47.6361 77.1147C46.0473 74.3484 45.0498 72.8508 44.6437 72.6219C44.5025 72.8906 44.4319 73.2389 44.4319 73.6667C44.4319 73.8956 44.4407 74.0946 44.4584 74.2638L44.4849 74.8459L44.4584 75.2041C44.4407 75.3136 44.4319 75.433 44.4319 75.5624C44.4319 75.7813 44.4495 75.9703 44.4849 76.1295C44.5202 76.448 44.5378 76.6072 44.5378 76.6072H44.4584C44.4584 78.269 44.5202 79.1844 44.6437 79.3536V80.6969C44.7144 80.7765 44.7497 80.881 44.7497 81.0104C44.7497 81.09 44.7002 81.1596 44.6014 81.2193C44.506 81.279 44.3878 81.3089 44.2465 81.3089C43.8758 81.3089 43.6904 81.0402 43.6904 80.5029L43.7434 80.0253C43.7787 79.876 43.7963 79.7118 43.7963 79.5327C43.7963 79.0551 43.7699 78.3386 43.7169 77.3833C43.6639 76.4281 43.6375 75.7116 43.6375 75.234C43.6375 74.9454 43.6639 74.5026 43.7169 73.9056C43.7699 73.3185 43.7963 72.8806 43.7963 72.5921V72.398C43.7963 71.9104 43.9552 71.592 44.273 71.4428L44.3525 71.4875L44.6173 71.4577C44.6879 71.4676 44.7673 71.4975 44.8556 71.5472C44.9262 71.5871 44.9615 71.6318 44.9615 71.6816L45.0145 71.7711C45.0145 71.791 45.018 71.808 45.0251 71.8219C45.0357 71.8378 45.041 71.8458 45.041 71.8458C45.3234 72.5523 45.959 73.5424 46.9476 74.8161C47.9539 76.1594 48.5806 77.05 48.8278 77.4878C49.0043 77.8361 49.1456 78.1446 49.2515 78.4132C49.5869 79.259 49.9841 79.9108 50.4431 80.3686L50.4961 80.3238C50.9021 78.1147 51.1052 75.4031 51.1052 72.1891L51.0787 72.01C51.061 71.9602 51.0522 71.8955 51.0522 71.8159C51.0522 71.607 51.1758 71.5025 51.4229 71.5025C51.5818 71.5025 51.7195 71.5472 51.836 71.6368C51.949 71.7264 52.0055 71.8259 52.0055 71.9353V72.9354L51.8731 73.0548C51.8731 74.0001 51.776 75.5524 51.5818 77.7117C51.3876 79.871 51.2023 81.0452 51.0257 81.2343L50.5755 81.294V81.3089L50.5491 81.294L50.2842 81.3387ZM56.216 81.4731C55.8983 81.4731 55.7217 81.3686 55.6864 81.1596V80.9656C55.7041 80.9158 55.7129 80.8561 55.7129 80.7865L55.607 80.7268C55.7482 80.5178 55.8188 80.3138 55.8188 80.1148C55.8188 79.8859 55.7923 79.5576 55.7394 79.1297L55.6864 78.1446C55.6864 77.647 55.7129 76.9007 55.7659 75.9057C55.8365 75.02 55.8718 74.2688 55.8718 73.6518L55.8188 72.7563C55.7835 72.4876 55.7659 72.1891 55.7659 71.8607C55.7659 71.7114 55.8277 71.604 55.9512 71.5383C56.0748 71.4746 56.269 71.4428 56.5338 71.4428C56.7104 71.4428 56.8516 71.4726 56.9575 71.5323C56.9928 71.5423 57.2488 71.5622 57.7255 71.592C58.1668 71.6219 58.5464 71.6667 58.8642 71.7264C59.1996 71.7861 59.3673 71.8607 59.3673 71.9503C59.3673 72.0498 59.1996 72.1493 58.8642 72.2488C57.8579 72.0597 57.1429 71.9652 56.7192 71.9652L56.5868 72.0547C56.6044 72.1443 56.6133 72.3582 56.6133 72.6966C56.6133 73.1244 56.5956 73.5075 56.5603 73.8459C56.5426 74.1941 56.5338 74.5822 56.5338 75.0101C56.5338 75.2887 56.6574 75.428 56.9046 75.428L57.3283 75.4131C57.4695 75.4031 57.6195 75.3982 57.7784 75.3982C58.4669 75.3982 58.8112 75.4877 58.8112 75.6668C58.8112 75.7763 58.7671 75.8678 58.6788 75.9415C58.5905 76.0171 58.4581 76.0549 58.2816 76.0549C58.0168 76.0549 57.8137 76.0151 57.6725 75.9355L56.8251 75.8609H56.6927L56.5603 75.9355V75.9803C56.5956 76.1495 56.6133 76.5425 56.6133 77.1594C56.6133 77.5475 56.6044 77.9008 56.5868 78.2192L56.5603 79.2789C56.5603 79.667 56.5868 80.0651 56.6397 80.473C56.6574 80.7019 56.7457 80.8531 56.9046 80.9268C57.0634 81.0024 57.3547 81.0402 57.7784 81.0402L58.2551 81.0253C58.414 81.0153 58.5905 81.0104 58.7847 81.0104C59.2967 81.0104 59.5527 81.0751 59.5527 81.2044C59.5527 81.3835 59.1643 81.4731 58.3875 81.4731H56.216ZM66.9145 81.5328L66.5437 81.4582C66.3319 81.3288 66.1024 80.9855 65.8552 80.4283C65.6081 79.871 65.3785 79.2441 65.1667 78.5476C65.0255 77.9804 64.8224 77.4182 64.5576 76.8609C64.3458 76.3634 64.1428 76.1146 63.9486 76.1146H63.8691C63.4807 76.1146 63.2865 76.1843 63.2865 76.3236C63.2865 77.04 63.3571 78.1296 63.4984 79.5924C63.569 80.488 63.6484 81.0104 63.7367 81.1596L63.5249 81.4134H63.1541L62.9423 81.294C62.6598 76.6967 62.5186 73.5623 62.5186 71.8905C62.5186 71.7811 62.5309 71.6915 62.5556 71.6219C62.5839 71.5522 62.6422 71.4875 62.7304 71.4278C62.801 71.3582 62.9246 71.3234 63.1012 71.3234C64.0015 71.3234 64.7253 71.4477 65.2726 71.6965C65.8199 71.9453 66.0935 72.3035 66.0935 72.7712V73.8608C66.0935 74.0499 65.9841 74.3036 65.7652 74.622C65.5427 74.9404 65.2991 75.234 65.0343 75.5027L64.69 75.8758C64.8842 76.3833 65.2673 77.2958 65.8393 78.6132C66.4148 79.9327 66.7291 80.6322 66.7821 80.7118C66.7997 80.7218 66.8209 80.7467 66.8456 80.7865C66.8739 80.8263 66.9321 80.886 67.0204 80.9656C67.144 81.1049 67.2058 81.2243 67.2058 81.3238C67.2058 81.4631 67.1087 81.5328 66.9145 81.5328ZM63.4189 75.7415C63.7544 75.7415 64.0545 75.6469 64.3193 75.4579C64.5841 75.2688 64.796 75.025 64.9548 74.7265C65.2373 74.1195 65.3785 73.6369 65.3785 73.2787C65.3785 73.0498 65.3556 72.8607 65.3097 72.7115C65.2673 72.5622 65.1932 72.403 65.0873 72.2338C64.8754 71.8856 64.3723 71.7114 63.5778 71.7114C63.4896 71.7114 63.4189 71.7532 63.366 71.8368C63.313 71.9224 63.2865 72.01 63.2865 72.0995C63.2865 72.7662 63.3042 73.3682 63.3395 73.9056C63.3571 74.4429 63.366 75.0449 63.366 75.7116L63.4189 75.7415ZM76.739 81.1895L76.4477 81.0701L76.4212 80.5178C76.4036 80.3586 76.3947 80.1795 76.3947 79.9805C76.3947 79.881 76.4036 79.7964 76.4212 79.7267L76.4477 79.4581C76.4477 79.3586 76.4124 79.2391 76.3418 79.0998C76.3418 78.4331 76.2535 77.1943 76.077 75.3832C75.9004 73.6319 75.8033 72.4428 75.7857 71.8159C74.6911 71.8159 73.9585 71.801 73.5877 71.7711C73.2346 71.7214 73.0581 71.6418 73.0581 71.5323C73.1464 71.4229 73.3141 71.3681 73.5612 71.3681C74.0909 71.3681 74.8588 71.388 75.8651 71.4278C76.7831 71.4776 77.5511 71.5025 78.169 71.5025H78.7251L79.2812 71.4875C79.599 71.4875 79.7579 71.5522 79.7579 71.6816C79.7579 71.7413 79.6996 71.7881 79.5831 71.8219C79.4701 71.8577 79.3342 71.8756 79.1753 71.8756C78.8222 71.8756 78.4514 71.8657 78.0631 71.8458L76.9244 71.8159C76.8537 71.8159 76.8184 71.8308 76.8184 71.8607C76.8008 71.8905 76.792 71.9851 76.792 72.1443C76.792 73.1095 76.8979 74.5723 77.1097 76.5326C77.3039 78.5625 77.401 80.0203 77.401 80.9059C77.401 80.9755 77.3251 81.0402 77.1733 81.0999C77.025 81.1596 76.8802 81.1895 76.739 81.1895ZM87.3315 81.4432C87.3315 81.3437 87.0667 81.294 86.537 81.294C86.4488 79.4531 86.4046 78.1197 86.4046 77.2938L86.3252 77.2341L86.4311 77.0997C86.4311 76.9206 86.3958 76.7365 86.3252 76.5475L85.928 76.4878C85.7691 76.5176 85.5925 76.5326 85.3984 76.5326C85.2571 76.5326 84.9658 76.5077 84.5245 76.4579C84.2244 76.4082 83.9507 76.3833 83.7036 76.3833L83.4123 76.443C83.4123 76.7913 83.4034 77.1047 83.3858 77.3833C83.3681 77.662 83.3593 77.9754 83.3593 78.3237L83.4123 78.3834C83.4123 78.662 83.4387 79.0799 83.4917 79.6372C83.5447 80.1845 83.5711 80.5974 83.5711 80.876C83.5711 80.9855 83.5358 81.077 83.4652 81.1507C83.3946 81.2263 83.2887 81.2641 83.1474 81.2641C82.7591 81.2641 82.5649 80.9656 82.5649 80.3686C82.5649 79.8611 82.5737 79.4033 82.5913 78.9954L82.6178 77.6371C82.6178 76.7316 82.5913 76.244 82.5384 76.1743C82.6267 76.0748 82.6708 75.7464 82.6708 75.1892C82.6708 74.7116 82.6355 74.1295 82.5649 73.4429L82.5119 72.8607L82.4589 71.6965C82.4589 71.6269 82.5031 71.5622 82.5913 71.5025C82.6796 71.4428 82.7855 71.4129 82.9091 71.4129C83.2622 71.4129 83.4387 71.7015 83.4387 72.2786C83.4387 72.9553 83.4299 73.5672 83.4123 74.1145C83.377 74.6618 83.3593 75.2638 83.3593 75.9206C83.3593 76.04 84.0302 76.0997 85.3719 76.0997H85.4778C85.8132 76.0997 86.0551 76.0619 86.2034 75.9863C86.3552 75.9126 86.4311 75.7862 86.4311 75.6071C86.4311 75.0797 86.3693 74.3932 86.2458 73.5473C86.1398 72.6319 86.0869 71.9453 86.0869 71.4875C86.0869 71.4278 86.131 71.3751 86.2193 71.3293C86.3075 71.2855 86.4135 71.2637 86.537 71.2637L86.7754 71.3084C86.899 71.3184 86.9784 71.3333 87.0137 71.3532C87.0137 72.1294 87.0667 73.2886 87.1726 74.831C87.2785 76.3833 87.3315 77.5475 87.3315 78.3237C87.3315 79.4979 87.3933 80.483 87.5168 81.279L87.3315 81.4432ZM85.6632 75.9206V75.8907L85.7161 75.9206H85.6632ZM91.7274 81.4731C91.4096 81.4731 91.233 81.3686 91.1977 81.1596V80.9656C91.2154 80.9158 91.2242 80.8561 91.2242 80.7865L91.1183 80.7268C91.2595 80.5178 91.3301 80.3138 91.3301 80.1148C91.3301 79.8859 91.3037 79.5576 91.2507 79.1297L91.1977 78.1446C91.1977 77.647 91.2242 76.9007 91.2772 75.9057C91.3478 75.02 91.3831 74.2688 91.3831 73.6518L91.3301 72.7563C91.2948 72.4876 91.2772 72.1891 91.2772 71.8607C91.2772 71.7114 91.339 71.604 91.4626 71.5383C91.5861 71.4746 91.7803 71.4428 92.0451 71.4428C92.2217 71.4428 92.3629 71.4726 92.4688 71.5323C92.5042 71.5423 92.7601 71.5622 93.2368 71.592C93.6782 71.6219 94.0577 71.6667 94.3755 71.7264C94.7109 71.7861 94.8786 71.8607 94.8786 71.9503C94.8786 72.0498 94.7109 72.1493 94.3755 72.2488C93.3692 72.0597 92.6542 71.9652 92.2305 71.9652L92.0981 72.0547C92.1158 72.1443 92.1246 72.3582 92.1246 72.6966C92.1246 73.1244 92.1069 73.5075 92.0716 73.8459C92.054 74.1941 92.0451 74.5822 92.0451 75.0101C92.0451 75.2887 92.1687 75.428 92.4159 75.428L92.8396 75.4131C92.9808 75.4031 93.1309 75.3982 93.2898 75.3982C93.9783 75.3982 94.3225 75.4877 94.3225 75.6668C94.3225 75.7763 94.2784 75.8678 94.1901 75.9415C94.1019 76.0171 93.9694 76.0549 93.7929 76.0549C93.5281 76.0549 93.3251 76.0151 93.1838 75.9355L92.3364 75.8609H92.204L92.0716 75.9355V75.9803C92.1069 76.1495 92.1246 76.5425 92.1246 77.1594C92.1246 77.5475 92.1158 77.9008 92.0981 78.2192L92.0716 79.2789C92.0716 79.667 92.0981 80.0651 92.1511 80.473C92.1687 80.7019 92.257 80.8531 92.4159 80.9268C92.5748 81.0024 92.8661 81.0402 93.2898 81.0402L93.7664 81.0253C93.9253 81.0153 94.1018 81.0104 94.296 81.0104C94.808 81.0104 95.064 81.0751 95.064 81.2044C95.064 81.3835 94.6756 81.4731 93.8988 81.4731H91.7274ZM102.955 81.4432C102.814 81.4432 102.696 81.4134 102.601 81.3537C102.502 81.294 102.452 81.2193 102.452 81.1298L102.426 80.6671C102.426 80.3088 102.479 79.7815 102.585 79.0849C102.673 78.3088 102.717 77.7863 102.717 77.5177L102.691 76.846C102.673 76.647 102.664 76.4281 102.664 76.1893C102.664 75.7912 102.691 75.1992 102.744 74.4131C102.797 73.607 102.823 73.01 102.823 72.6219L102.797 71.7562L102.691 71.6816V71.592C102.691 71.3333 102.876 71.2039 103.247 71.2039C103.529 71.2039 103.993 71.2656 104.64 71.389C105.282 71.5144 105.604 71.6169 105.604 71.6965V71.7413C105.921 72.0299 106.138 72.3184 106.255 72.607C106.368 72.8956 106.424 73.2637 106.424 73.7115C106.424 74.4379 106.283 75.03 106.001 75.4877H106.027C105.957 75.5673 105.815 75.6967 105.604 75.8758L105.233 76.1893C105.551 76.3286 105.821 76.5326 106.043 76.8012C106.262 77.0699 106.398 77.3286 106.451 77.5774C106.469 77.6669 106.486 77.7764 106.504 77.9058C106.522 78.0351 106.539 78.1893 106.557 78.3685L106.583 78.7565V78.9655C106.583 79.9208 106.054 80.6273 104.994 81.085C104.447 81.3238 103.768 81.4432 102.955 81.4432ZM103.564 75.8907H103.776C104.941 75.8907 105.524 75.229 105.524 73.9056C105.524 73.7961 105.506 73.5822 105.471 73.2637L105.445 72.9802L105.392 72.9503C105.321 72.6219 105.224 72.3632 105.1 72.1741C105.012 72.0348 104.871 71.9224 104.677 71.8368C104.482 71.7532 104.271 71.7114 104.041 71.7114C103.653 71.7114 103.459 72.3632 103.459 73.6667C103.459 73.9155 103.467 74.0847 103.485 74.1742V74.4728V74.9802C103.467 75.1395 103.459 75.3186 103.459 75.5176V75.6967C103.459 75.6967 103.476 75.7265 103.512 75.7862L103.564 75.8907ZM103.379 80.8611C103.803 80.8611 104.196 80.7815 104.56 80.6223C104.92 80.4631 105.206 80.2561 105.418 80.0014C105.63 79.7486 105.736 79.4979 105.736 79.2491L105.762 79.1894V79.07V78.9058C105.762 78.4879 105.701 78.0898 105.577 77.7117C105.383 77.2042 105.039 76.836 104.544 76.6072C104.262 76.4778 103.926 76.4131 103.538 76.4131C103.45 77.2391 103.406 77.9157 103.406 78.4431V78.7864C103.406 79.075 103.432 79.3038 103.485 79.473C103.397 79.5625 103.353 79.8014 103.353 80.1894V80.5775L103.379 80.8611ZM110.529 81.4731C110.211 81.4731 110.035 81.3686 109.999 81.1596V80.9656C110.017 80.9158 110.026 80.8561 110.026 80.7865L109.92 80.7268C110.061 80.5178 110.132 80.3138 110.132 80.1148C110.132 79.8859 110.105 79.5576 110.052 79.1297L109.999 78.1446C109.999 77.647 110.026 76.9007 110.079 75.9057C110.149 75.02 110.185 74.2688 110.185 73.6518L110.132 72.7563C110.097 72.4876 110.079 72.1891 110.079 71.8607C110.079 71.7114 110.141 71.604 110.264 71.5383C110.388 71.4746 110.582 71.4428 110.847 71.4428C111.023 71.4428 111.165 71.4726 111.271 71.5323C111.306 71.5423 111.562 71.5622 112.038 71.592C112.48 71.6219 112.859 71.6667 113.177 71.7264C113.513 71.7861 113.68 71.8607 113.68 71.9503C113.68 72.0498 113.513 72.1493 113.177 72.2488C112.171 72.0597 111.456 71.9652 111.032 71.9652L110.9 72.0547C110.917 72.1443 110.926 72.3582 110.926 72.6966C110.926 73.1244 110.909 73.5075 110.873 73.8459C110.856 74.1941 110.847 74.5822 110.847 75.0101C110.847 75.2887 110.97 75.428 111.218 75.428L111.641 75.4131C111.782 75.4031 111.933 75.3982 112.091 75.3982C112.78 75.3982 113.124 75.4877 113.124 75.6668C113.124 75.7763 113.08 75.8678 112.992 75.9415C112.904 76.0171 112.771 76.0549 112.595 76.0549C112.33 76.0549 112.127 76.0151 111.986 75.9355L111.138 75.8609H111.006L110.873 75.9355V75.9803C110.909 76.1495 110.926 76.5425 110.926 77.1594C110.926 77.5475 110.917 77.9008 110.9 78.2192L110.873 79.2789C110.873 79.667 110.9 80.0651 110.953 80.473C110.97 80.7019 111.059 80.8531 111.218 80.9268C111.376 81.0024 111.668 81.0402 112.091 81.0402L112.568 81.0253C112.727 81.0153 112.904 81.0104 113.098 81.0104C113.61 81.0104 113.866 81.0751 113.866 81.2044C113.866 81.3835 113.477 81.4731 112.7 81.4731H110.529ZM118.844 81.1895L118.553 81.0701L118.526 80.5178C118.509 80.3586 118.5 80.1795 118.5 79.9805C118.5 79.881 118.509 79.7964 118.526 79.7267L118.553 79.4581C118.553 79.3586 118.518 79.2391 118.447 79.0998C118.447 78.4331 118.359 77.1943 118.182 75.3832C118.006 73.6319 117.908 72.4428 117.891 71.8159C116.796 71.8159 116.064 71.801 115.693 71.7711C115.34 71.7214 115.163 71.6418 115.163 71.5323C115.252 71.4229 115.419 71.3681 115.666 71.3681C116.196 71.3681 116.964 71.388 117.97 71.4278C118.888 71.4776 119.656 71.5025 120.274 71.5025H120.83L121.386 71.4875C121.704 71.4875 121.863 71.5522 121.863 71.6816C121.863 71.7413 121.807 71.7881 121.694 71.8219C121.577 71.8577 121.439 71.8756 121.28 71.8756C120.927 71.8756 120.557 71.8657 120.168 71.8458L119.03 71.8159C118.959 71.8159 118.924 71.8308 118.924 71.8607C118.906 71.8905 118.897 71.9851 118.897 72.1443C118.897 73.1095 119.003 74.5723 119.215 76.5326C119.409 78.5625 119.506 80.0203 119.506 80.9059C119.506 80.9755 119.432 81.0402 119.284 81.0999C119.132 81.1596 118.985 81.1895 118.844 81.1895ZM126.709 81.1895L126.418 81.0701L126.391 80.5178C126.374 80.3586 126.365 80.1795 126.365 79.9805C126.365 79.881 126.374 79.7964 126.391 79.7267L126.418 79.4581C126.418 79.3586 126.382 79.2391 126.312 79.0998C126.312 78.4331 126.224 77.1943 126.047 75.3832C125.87 73.6319 125.773 72.4428 125.756 71.8159C124.661 71.8159 123.929 71.801 123.558 71.7711C123.205 71.7214 123.028 71.6418 123.028 71.5323C123.116 71.4229 123.284 71.3681 123.531 71.3681C124.061 71.3681 124.829 71.388 125.835 71.4278C126.753 71.4776 127.521 71.5025 128.139 71.5025H128.695L129.251 71.4875C129.569 71.4875 129.728 71.5522 129.728 71.6816C129.728 71.7413 129.671 71.7881 129.558 71.8219C129.442 71.8577 129.304 71.8756 129.145 71.8756C128.792 71.8756 128.422 71.8657 128.033 71.8458L126.894 71.8159C126.824 71.8159 126.789 71.8308 126.789 71.8607C126.771 71.8905 126.762 71.9851 126.762 72.1443C126.762 73.1095 126.868 74.5723 127.08 76.5326C127.274 78.5625 127.371 80.0203 127.371 80.9059C127.371 80.9755 127.297 81.0402 127.149 81.0999C126.997 81.1596 126.85 81.1895 126.709 81.1895ZM133.038 81.4731C132.72 81.4731 132.544 81.3686 132.508 81.1596V80.9656C132.526 80.9158 132.535 80.8561 132.535 80.7865L132.429 80.7268C132.57 80.5178 132.641 80.3138 132.641 80.1148C132.641 79.8859 132.614 79.5576 132.561 79.1297L132.508 78.1446C132.508 77.647 132.535 76.9007 132.588 75.9057C132.659 75.02 132.694 74.2688 132.694 73.6518L132.641 72.7563C132.606 72.4876 132.588 72.1891 132.588 71.8607C132.588 71.7114 132.65 71.604 132.773 71.5383C132.897 71.4746 133.091 71.4428 133.356 71.4428C133.532 71.4428 133.674 71.4726 133.78 71.5323C133.815 71.5423 134.071 71.5622 134.548 71.592C134.989 71.6219 135.368 71.6667 135.686 71.7264C136.022 71.7861 136.189 71.8607 136.189 71.9503C136.189 72.0498 136.022 72.1493 135.686 72.2488C134.68 72.0597 133.965 71.9652 133.541 71.9652L133.409 72.0547C133.426 72.1443 133.435 72.3582 133.435 72.6966C133.435 73.1244 133.418 73.5075 133.382 73.8459C133.365 74.1941 133.356 74.5822 133.356 75.0101C133.356 75.2887 133.479 75.428 133.727 75.428L134.15 75.4131C134.292 75.4031 134.442 75.3982 134.6 75.3982C135.289 75.3982 135.633 75.4877 135.633 75.6668C135.633 75.7763 135.589 75.8678 135.501 75.9415C135.413 76.0171 135.28 76.0549 135.104 76.0549C134.839 76.0549 134.636 76.0151 134.495 75.9355L133.647 75.8609H133.515L133.382 75.9355V75.9803C133.418 76.1495 133.435 76.5425 133.435 77.1594C133.435 77.5475 133.426 77.9008 133.409 78.2192L133.382 79.2789C133.382 79.667 133.409 80.0651 133.462 80.473C133.479 80.7019 133.568 80.8531 133.727 80.9268C133.885 81.0024 134.177 81.0402 134.6 81.0402L135.077 81.0253C135.236 81.0153 135.413 81.0104 135.607 81.0104C136.119 81.0104 136.375 81.0751 136.375 81.2044C136.375 81.3835 135.986 81.4731 135.21 81.4731H133.038ZM143.736 81.5328L143.366 81.4582C143.154 81.3288 142.924 80.9855 142.677 80.4283C142.43 79.871 142.201 79.2441 141.989 78.5476C141.848 77.9804 141.644 77.4182 141.38 76.8609C141.168 76.3634 140.965 76.1146 140.771 76.1146H140.691C140.303 76.1146 140.109 76.1843 140.109 76.3236C140.109 77.04 140.179 78.1296 140.32 79.5924C140.391 80.488 140.47 81.0104 140.559 81.1596L140.347 81.4134H139.976L139.764 81.294C139.482 76.6967 139.341 73.5623 139.341 71.8905C139.341 71.7811 139.355 71.6915 139.383 71.6219C139.408 71.5522 139.464 71.4875 139.552 71.4278C139.623 71.3582 139.747 71.3234 139.923 71.3234C140.824 71.3234 141.547 71.4477 142.095 71.6965C142.642 71.9453 142.916 72.3035 142.916 72.7712V73.8608C142.916 74.0499 142.806 74.3036 142.587 74.622C142.365 74.9404 142.121 75.234 141.856 75.5027L141.512 75.8758C141.706 76.3833 142.091 77.2958 142.667 78.6132C143.239 79.9327 143.551 80.6322 143.604 80.7118C143.622 80.7218 143.645 80.7467 143.673 80.7865C143.698 80.8263 143.754 80.886 143.842 80.9656C143.966 81.1049 144.028 81.2243 144.028 81.3238C144.028 81.4631 143.931 81.5328 143.736 81.5328ZM140.241 75.7415C140.576 75.7415 140.877 75.6469 141.141 75.4579C141.406 75.2688 141.618 75.025 141.777 74.7265C142.059 74.1195 142.201 73.6369 142.201 73.2787C142.201 73.0498 142.179 72.8607 142.137 72.7115C142.091 72.5622 142.015 72.403 141.909 72.2338C141.697 71.8856 141.194 71.7114 140.4 71.7114C140.312 71.7114 140.241 71.7532 140.188 71.8368C140.135 71.9224 140.109 72.01 140.109 72.0995C140.109 72.7662 140.126 73.3682 140.162 73.9056C140.179 74.4429 140.188 75.0449 140.188 75.7116L140.241 75.7415Z" fill="#ADBFB8"/>
</g>
</g>
</g>
</g>
<g clip-path="url(#clip10_5_2)">
<g clip-path="url(#clip11_5_2)">
<path d="M59.5843 33.1037C63.3854 33.6743 70.0068 33.591 76.1969 32.6364C82.388 31.6813 91.3898 28.1441 97.2687 24.609C103.148 21.0739 107.382 16.9628 109.492 14.0947C111.603 11.2262 113.896 7.4139 115.033 4.72835C116.171 2.0428 115.312 0.467209 115.312 0.467209C115.014 3.17008 112.326 3.85934 109.37 4.94926C106.416 6.03918 106.185 5.89895 100.621 6.46042C95.0574 7.0219 88.2343 6.60932 77.6042 7.47183C66.9742 8.33435 58.2375 11.4715 54.6429 13.1575C51.0483 14.8436 48.302 18.2406 47.4586 20.1194C46.6151 21.9982 46.3154 23.9354 47.1137 25.3946C47.6401 26.3568 48.6862 26.9881 48.6862 26.9881L52.837 22.3977C52.837 22.3977 58.5603 17.573 66.2921 15.0921C74.024 12.6117 79.1623 13.0573 83.5119 12.6735C87.8635 12.2901 94.53 11.4124 97.6885 10.8688C100.849 10.3252 106.369 8.61103 106.369 8.61103C106.369 8.61103 101.311 10.6057 98.0094 11.485C94.7068 12.3643 90.4648 12.9534 86.948 13.4223C83.4332 13.8912 78.6205 14.3032 75.4333 14.9437C71.1336 15.8079 67.9895 16.685 65.6351 17.7874C63.2797 18.8903 59.1827 20.9044 56.8811 23.0242C54.5795 25.1434 52.1405 27.5306 50.8255 29.2638C49.5094 30.9975 47.6987 32.7885 45.9581 33.7675C44.2175 34.7475 40.6546 35.9603 40.6546 35.9603C40.6546 35.9603 41.1243 37.0367 41.9831 37.6983C42.8333 38.354 44.1618 38.8267 44.1618 38.8267C44.1618 38.8267 47.4518 37.1905 49.9292 35.6116C51.8485 34.389 52.9772 33.5585 53.7179 32.7956C54.3403 32.1529 54.8245 31.4804 54.8245 31.4804C54.8245 31.4804 56.9666 32.71 59.5843 33.1037Z" fill="#569161"/>
<path d="M109.102 26.7948H102.241V38.8267H109.102V26.7948Z" fill="#569161"/>
<path d="M116.345 30.8767H94.9979V34.7442H116.345V30.8767Z" fill="#569161"/>
</g>
</g>
</g>
</g>
</g>
</g>
<defs>
<clipPath id="clip0_5_2">
<rect width="131" height="81" fill="white" transform="translate(0 0.5)"/>
</clipPath>
<clipPath id="clip1_5_2">
<rect width="131" height="81" fill="white" transform="translate(13 0.5)"/>
</clipPath>
<clipPath id="clip2_5_2">
<rect width="131.056" height="81.0656" fill="white" transform="translate(12.9722 0.467209)"/>
</clipPath>
<clipPath id="clip3_5_2">
<rect width="131.056" height="81.0656" fill="white" transform="translate(12.9722 0.467209)"/>
</clipPath>
<clipPath id="clip4_5_2">
<rect width="131.056" height="37.514" fill="white" transform="translate(12.9722 44.0187)"/>
</clipPath>
<clipPath id="clip5_5_2">
<rect width="131.056" height="37.514" fill="white" transform="translate(12.9722 44.0187)"/>
</clipPath>
<clipPath id="clip6_5_2">
<rect width="131.056" height="21.9932" fill="white" transform="translate(12.9722 44.0187)"/>
</clipPath>
<clipPath id="clip7_5_2">
<rect width="131.056" height="21.9932" fill="white" transform="translate(12.9722 44.0187)"/>
</clipPath>
<clipPath id="clip8_5_2">
<rect width="131.056" height="10.3288" fill="white" transform="translate(12.9722 71.2039)"/>
</clipPath>
<clipPath id="clip9_5_2">
<rect width="131.056" height="10.3288" fill="white" transform="translate(12.9722 71.2039)"/>
</clipPath>
<clipPath id="clip10_5_2">
<rect width="80.9923" height="38.3595" fill="white" transform="translate(38.0038 0.467209)"/>
</clipPath>
<clipPath id="clip11_5_2">
<rect width="75.6908" height="38.3595" fill="white" transform="translate(40.6546 0.467209)"/>
</clipPath>
</defs>
</svg>
